<svg width="1471" height="509" xmlns="http://www.w3.org/2000/svg" xmlns:xlink="http://www.w3.org/1999/xlink" xml:space="preserve" overflow="hidden"><g transform="translate(-2562 -1251)"><g><text fill="#000000" fill-opacity="1" font-family="Avenir Book,Avenir Book_MSFontService,sans-serif" font-style="normal" font-variant="normal" font-weight="400" font-stretch="normal" font-size="202" text-anchor="start" direction="ltr" writing-mode="lr-tb" unicode-bidi="normal" text-decoration="none" transform="matrix(1 0 0 1 3038.01 1498)">Python</text><text fill="#000000" fill-opacity="1" font-family="Avenir Book,Avenir Book_MSFontService,sans-serif" font-style="normal" font-variant="normal" font-weight="400" font-stretch="normal" font-size="110" text-anchor="start" direction="ltr" writing-mode="lr-tb" unicode-bidi="normal" text-decoration="none" transform="matrix(1 0 0 1 3039.73 1657)">ITS</text><text fill="#000000" fill-opacity="1" font-family="Avenir Book,Avenir Book_MSFontService,sans-serif" font-style="normal" font-variant="normal" font-weight="400" font-stretch="normal" font-size="110" text-anchor="start" direction="ltr" writing-mode="lr-tb" unicode-bidi="normal" text-decoration="none" transform="matrix(1 0 0 1 3223.63 1657)">Analytics</text><g><g><g><path d="M16.101 173.577 37.7 117.027C38.4854 114.671 40.0562 112.707 41.6271 111.136L53.0156 99.7478 47.125 93.4645C43.9833 90.3229 43.9833 84.8249 47.125 81.6833L59.2989 69.5093C62.4406 66.3677 67.9385 66.3677 71.0802 69.5093L77.3635 75.3999 112.315 40.4489C115.456 37.3073 120.954 37.3073 124.096 40.4489L162.188 78.9343C165.33 82.076 165.33 87.5739 162.188 90.7156L128.416 124.881 323.984 311.81C327.126 314.952 327.126 320.45 323.984 323.591L300.814 346.761C297.673 349.903 292.175 349.903 289.033 346.761L102.104 151.193 92.2864 161.01C90.3229 162.974 87.9666 164.152 85.6104 164.937L26.7041 184.18C23.5625 184.965 20.4208 184.18 18.0646 181.824 15.7083 179.86 14.9229 176.326 16.101 173.577Z" fill="#01478F" fill-rule="nonzero" fill-opacity="1" transform="matrix(1 0 0 1.00265 2566 1315)"/><path d="M251.726 111.529 200.674 77.7562C198.71 76.1854 197.532 74.2218 197.139 71.8656 197.139 69.5093 197.925 67.1531 199.496 65.1895L234.839 30.2385C237.588 27.4896 242.301 27.0969 245.443 29.4531L305.527 69.5093C305.92 69.5093 306.312 69.902 306.312 70.2947L306.705 70.6875 318.094 82.076 318.879 82.8614 319.272 83.2541 319.272 83.6468 359.721 142.553C362.077 145.695 361.684 150.407 358.935 153.156L323.591 188.107C322.021 189.678 319.272 190.856 316.915 190.463 314.559 190.071 312.203 188.893 310.632 186.929L277.645 137.448 224.236 193.212 195.176 165.33 251.726 111.529Z" fill="#01478F" fill-rule="nonzero" fill-opacity="1" transform="matrix(1 0 0 1.00265 2566 1315)"/><path d="M77.3635 346.761C74.2218 349.903 68.7239 349.903 65.5823 346.761L42.0198 323.199C38.8781 320.057 38.8781 314.559 42.0198 311.418L141.375 216.775 171.613 248.191 77.3635 346.761Z" fill="#01478F" fill-rule="nonzero" fill-opacity="1" transform="matrix(1 0 0 1.00265 2566 1315)"/></g></g></g></g></g></svg>