<svg width="2434" height="453" xmlns="http://www.w3.org/2000/svg" xmlns:xlink="http://www.w3.org/1999/xlink" xml:space="preserve" overflow="hidden"><defs><clipPath id="clip0"><path d="M3098.16 899.289 3226.65 775.832 3350.11 904.33 3221.61 1027.79Z" fill-rule="nonzero" clip-rule="nonzero"/></clipPath><clipPath id="clip1"><path d="M3098.16 899.289 3226.65 775.832 3350.11 904.33 3221.61 1027.79Z" fill-rule="evenodd" clip-rule="evenodd"/></clipPath><clipPath id="clip2"><path d="M3098.16 899.289 3226.65 775.832 3350.11 904.33 3221.61 1027.79Z" fill-rule="evenodd" clip-rule="evenodd"/></clipPath></defs><g transform="translate(-1966 -715)"><g><g clip-path="url(#clip0)"><g clip-path="url(#clip1)"><g clip-path="url(#clip2)"><path d="M3264.09 827.386 3254.11 827.187C3251.75 827.139 3250.01 828.811 3249.84 831.039 3249.79 833.139 3248.18 834.945 3245.95 835.031 3243.59 834.984 3241.66 832.976 3241.71 830.614 3241.62 828.381 3239.81 826.769 3237.71 826.727L3213.43 826.373C3198.74 826.079 3181.3 837.939 3170.44 856.1 3170.3 856.229 3170.3 856.491 3170.16 856.62 3170.01 857.536 3170.13 858.457 3170.9 858.998 3171.68 859.538 3172.6 859.688 3173.52 859.313 3176.04 858.182 3180.55 855.909 3180.55 855.909 3191.41 850.875 3209.87 853.739 3213 854.851L3211.22 930.432 3209.12 930.39C3206.76 930.343 3204.89 932.144 3204.97 934.377L3203.88 995.4 3204.14 995.405C3204.94 1001.33 3209.85 1005.63 3215.88 1005.75 3221.79 1005.74 3226.99 1001.77 3228.03 995.883L3228.29 995.888 3229.51 934.737C3229.56 932.375 3227.76 930.501 3225.53 930.587L3223.43 930.545 3224.93 855.222 3237.01 855.463C3239.37 855.51 3241.11 853.839 3241.29 851.61 3241.33 849.511 3242.94 847.705 3245.17 847.618 3247.53 847.666 3249.46 849.674 3249.42 852.036 3249.5 854.269 3251.31 855.881 3253.41 855.923L3263.51 855.993C3265.88 856.041 3267.75 854.24 3267.8 851.878L3268.2 831.669C3268.22 830.62 3267.85 829.431 3267.08 828.628 3266.31 827.825 3265.27 827.279 3264.09 827.386Z" fill="#000000" fill-rule="nonzero" fill-opacity="1"/></g></g></g><text fill="#000000" fill-opacity="1" font-family="Avenir Book,Avenir Book_MSFontService,sans-serif" font-style="normal" font-variant="normal" font-weight="400" font-stretch="normal" font-size="202" text-anchor="start" direction="ltr" writing-mode="lr-tb" unicode-bidi="normal" text-decoration="none" transform="matrix(1 0 0 1 2430.02 985)">Python</text><text fill="#000000" fill-opacity="1" font-family="Avenir Book,Avenir Book_MSFontService,sans-serif" font-style="normal" font-variant="normal" font-weight="400" font-stretch="normal" font-size="202" text-anchor="start" direction="ltr" writing-mode="lr-tb" unicode-bidi="normal" text-decoration="none" transform="matrix(1 0 0 1 3110.64 985)">I</text><text fill="#000000" fill-opacity="1" font-family="Avenir Book,Avenir Book_MSFontService,sans-serif" font-style="normal" font-variant="normal" font-weight="400" font-stretch="normal" font-size="202" text-anchor="start" direction="ltr" writing-mode="lr-tb" unicode-bidi="normal" text-decoration="none" transform="matrix(1 0 0 1 3276.21 985)">S</text><text fill="#000000" fill-opacity="1" font-family="Avenir Book,Avenir Book_MSFontService,sans-serif" font-style="normal" font-variant="normal" font-weight="400" font-stretch="normal" font-size="202" text-anchor="start" direction="ltr" writing-mode="lr-tb" unicode-bidi="normal" text-decoration="none" transform="matrix(1 0 0 1 3444.65 985)">Analyt</text><text fill="#000000" fill-opacity="1" font-family="Avenir Book,Avenir Book_MSFontService,sans-serif" font-style="normal" font-variant="normal" font-weight="400" font-stretch="normal" font-size="202" text-anchor="start" direction="ltr" writing-mode="lr-tb" unicode-bidi="normal" text-decoration="none" transform="matrix(1 0 0 1 4068.56 985)">cs</text><g><g><g><path d="M1984.1 888.577 2005.7 832.027C2006.49 829.671 2008.06 827.707 2009.63 826.136L2021.02 814.748 2015.12 808.465C2011.98 805.323 2011.98 799.825 2015.12 796.683L2027.3 784.509C2030.44 781.368 2035.94 781.368 2039.08 784.509L2045.36 790.4 2080.31 755.449C2083.46 752.307 2088.95 752.307 2092.1 755.449L2130.19 793.934C2133.33 797.076 2133.33 802.574 2130.19 805.716L2096.42 839.881 2291.98 1026.81C2295.13 1029.95 2295.13 1035.45 2291.98 1038.59L2268.81 1061.76C2265.67 1064.9 2260.18 1064.9 2257.03 1061.76L2070.1 866.193 2060.29 876.01C2058.32 877.974 2055.97 879.152 2053.61 879.938L1994.7 899.18C1991.56 899.966 1988.42 899.18 1986.06 896.824 1983.71 894.86 1982.92 891.326 1984.1 888.577Z" fill="#01478F" fill-rule="nonzero" fill-opacity="1"/><path d="M2219.73 826.529 2168.67 792.756C2166.71 791.185 2165.53 789.222 2165.14 786.866 2165.14 784.509 2165.93 782.153 2167.5 780.19L2202.84 745.239C2205.59 742.49 2210.3 742.097 2213.44 744.453L2273.53 784.509C2273.92 784.509 2274.31 784.902 2274.31 785.295L2274.71 785.688 2286.09 797.076 2286.88 797.862 2287.27 798.254 2287.27 798.647 2327.72 857.553C2330.08 860.695 2329.68 865.407 2326.94 868.156L2291.59 903.107C2290.02 904.678 2287.27 905.856 2284.92 905.464 2282.56 905.071 2280.2 903.893 2278.63 901.929L2245.64 852.448 2192.24 908.213 2163.18 880.33 2219.73 826.529Z" fill="#01478F" fill-rule="nonzero" fill-opacity="1"/><path d="M2045.36 1061.76C2042.22 1064.9 2036.72 1064.9 2033.58 1061.76L2010.02 1038.2C2006.88 1035.06 2006.88 1029.56 2010.02 1026.42L2109.38 931.775 2139.61 963.192 2045.36 1061.76Z" fill="#01478F" fill-rule="nonzero" fill-opacity="1"/></g></g></g><g><g><g><path d="M93.579 36.3833C94.8124 41.9333 89.2624 47.1749 83.7124 44.8624 79.0874 43.1666 77.2374 37.7708 80.4749 33.1458 87.7207 23.4333 82.3249 8.32499 70.2999 2.92916 75.8499 13.2583 67.3707 22.8166 62.5916 26.825 57.8124 30.8333 54.5749 34.9958 53.6499 37.3083 48.7166 49.1791 56.1166 60.5874 61.0499 63.2082 58.7374 58.1208 56.7333 48.4083 65.5207 39.1583 65.5207 39.1583 63.0541 49.0249 68.4499 55.6541 73.9999 62.7458 73.9999 67.8332 73.9999 67.8332 82.9416 67.8332 90.9582 62.4374 94.3499 54.2666 96.6624 49.0249 96.9707 41.1624 93.579 36.3833Z" fill="#000000" fill-rule="nonzero" fill-opacity="1" transform="matrix(1 0 0 1.07433 3975 833)"/><path d="M50.1041 73.9999 60.2791 98.3582 67.2166 144.916 80.9374 144.916 87.7207 98.3582 97.8957 73.9999Z" fill="#000000" fill-rule="nonzero" fill-opacity="1" transform="matrix(1 0 0 1.07433 3975 833)"/></g></g></g><g><g><g><path d="M2882.5 956.875C2869.09 956.875 2858.12 945.906 2858.12 932.5 2858.12 919.094 2869.09 908.125 2882.5 908.125 2895.91 908.125 2906.88 919.094 2906.88 932.5 2906.88 945.906 2895.91 956.875 2882.5 956.875ZM2937.34 917.266C2936.12 912.797 2934.3 908.531 2932.06 904.672L2937.14 889.437 2925.56 877.859 2910.33 882.937C2906.27 880.703 2902 878.875 2897.53 877.656L2890.62 863.437 2874.38 863.437 2867.27 877.656C2862.8 878.875 2858.53 880.703 2854.67 882.937L2839.44 877.859 2827.86 889.437 2832.94 904.672C2830.7 908.734 2828.88 913 2827.66 917.469L2813.44 924.375 2813.44 940.625 2827.66 947.734C2828.88 952.203 2830.7 956.469 2832.94 960.328L2827.86 975.562 2839.44 987.141 2854.67 982.062C2858.73 984.297 2863 986.125 2867.47 987.344L2874.58 1001.56 2890.83 1001.56 2897.94 987.344C2902.41 986.125 2906.67 984.297 2910.53 982.062L2925.77 987.141 2937.34 975.562 2932.27 960.328C2934.5 956.266 2936.33 952 2937.55 947.531L2951.77 940.422 2951.77 924.172 2937.34 917.266Z" fill="#000000" fill-rule="nonzero" fill-opacity="1"/></g></g></g></g></g></svg>